<mxfile host="app.diagrams.net" modified="2023-02-28T04:29:41.408Z" agent="5.0 (Macintosh; Intel Mac OS X 10_15_7) AppleWebKit/537.36 (KHTML, like Gecko) Chrome/110.0.0.0 Safari/537.36" etag="acl9zCIfNZxz179tRo_L" version="20.8.21" type="github" pages="2">
  <diagram id="tug-MrQS2ArPpJNBZUA7" name="第 1 页">
    <mxGraphModel dx="1242" dy="1964" grid="1" gridSize="10" guides="1" tooltips="1" connect="1" arrows="1" fold="1" page="1" pageScale="1" pageWidth="827" pageHeight="1169" math="0" shadow="0">
      <root>
        <mxCell id="0" />
        <mxCell id="1" parent="0" />
        <mxCell id="47pUHz8qlLQvw9tdH5vL-11" value="" style="rounded=0;whiteSpace=wrap;html=1;fillColor=#dae8fc;strokeColor=#6c8ebf;" parent="1" vertex="1">
          <mxGeometry x="80" y="330" width="820" height="170" as="geometry" />
        </mxCell>
        <mxCell id="47pUHz8qlLQvw9tdH5vL-1" value="" style="rounded=0;whiteSpace=wrap;html=1;fillColor=#ffe6cc;strokeColor=#d79b00;" parent="1" vertex="1">
          <mxGeometry x="80" y="-10" width="820" height="310" as="geometry" />
        </mxCell>
        <mxCell id="47pUHz8qlLQvw9tdH5vL-2" value="" style="rounded=0;whiteSpace=wrap;html=1;" parent="1" vertex="1">
          <mxGeometry x="110" y="50" width="760" height="140" as="geometry" />
        </mxCell>
        <mxCell id="47pUHz8qlLQvw9tdH5vL-3" value="Page" style="text;html=1;align=center;verticalAlign=middle;resizable=0;points=[];autosize=1;strokeColor=none;fillColor=none;" parent="1" vertex="1">
          <mxGeometry x="110" y="50" width="50" height="30" as="geometry" />
        </mxCell>
        <mxCell id="47pUHz8qlLQvw9tdH5vL-4" value="Transfer Confirm" style="rounded=1;whiteSpace=wrap;html=1;fontFamily=Helvetica;fontSize=12;fontColor=default;align=center;strokeColor=default;fillColor=default;" parent="1" vertex="1">
          <mxGeometry x="160" y="90" width="120" height="60" as="geometry" />
        </mxCell>
        <mxCell id="47pUHz8qlLQvw9tdH5vL-5" value="New Transfer" style="rounded=1;whiteSpace=wrap;html=1;fontFamily=Helvetica;fontSize=12;fontColor=default;align=center;strokeColor=default;fillColor=default;" parent="1" vertex="1">
          <mxGeometry x="467" y="90" width="120" height="60" as="geometry" />
        </mxCell>
        <mxCell id="47pUHz8qlLQvw9tdH5vL-6" value="" style="rounded=0;whiteSpace=wrap;html=1;" parent="1" vertex="1">
          <mxGeometry x="110" y="380" width="780" height="100" as="geometry" />
        </mxCell>
        <mxCell id="47pUHz8qlLQvw9tdH5vL-8" value="VerifyModel" style="rounded=1;whiteSpace=wrap;html=1;" parent="1" vertex="1">
          <mxGeometry x="560" y="400" width="120" height="60" as="geometry" />
        </mxCell>
        <mxCell id="47pUHz8qlLQvw9tdH5vL-9" value="&lt;span style=&quot;&quot;&gt;useVerfiy&lt;/span&gt;" style="text;html=1;align=center;verticalAlign=middle;resizable=0;points=[];autosize=1;strokeColor=none;fillColor=none;" parent="1" vertex="1">
          <mxGeometry x="110" y="375" width="70" height="30" as="geometry" />
        </mxCell>
        <mxCell id="47pUHz8qlLQvw9tdH5vL-10" value="Business Layout" style="text;html=1;align=center;verticalAlign=middle;resizable=0;points=[];autosize=1;strokeColor=none;fillColor=none;" parent="1" vertex="1">
          <mxGeometry x="80" width="110" height="30" as="geometry" />
        </mxCell>
        <mxCell id="47pUHz8qlLQvw9tdH5vL-12" value="Logic Layout" style="text;html=1;align=center;verticalAlign=middle;resizable=0;points=[];autosize=1;strokeColor=none;fillColor=none;" parent="1" vertex="1">
          <mxGeometry x="80" y="330" width="90" height="30" as="geometry" />
        </mxCell>
        <mxCell id="47pUHz8qlLQvw9tdH5vL-13" value="" style="rounded=0;whiteSpace=wrap;html=1;fillColor=#f5f5f5;fontColor=#333333;strokeColor=#666666;" parent="1" vertex="1">
          <mxGeometry x="80" y="540" width="820" height="160" as="geometry" />
        </mxCell>
        <mxCell id="47pUHz8qlLQvw9tdH5vL-14" value="Basic Layout" style="text;html=1;align=center;verticalAlign=middle;resizable=0;points=[];autosize=1;strokeColor=none;fillColor=none;" parent="1" vertex="1">
          <mxGeometry x="80" y="540" width="90" height="30" as="geometry" />
        </mxCell>
        <mxCell id="47pUHz8qlLQvw9tdH5vL-22" value="" style="group" parent="1" vertex="1" connectable="0">
          <mxGeometry x="180" y="390" width="170" height="80" as="geometry" />
        </mxCell>
        <mxCell id="47pUHz8qlLQvw9tdH5vL-20" value="" style="shape=internalStorage;whiteSpace=wrap;html=1;backgroundOutline=1;" parent="47pUHz8qlLQvw9tdH5vL-22" vertex="1">
          <mxGeometry width="170" height="80" as="geometry" />
        </mxCell>
        <mxCell id="47pUHz8qlLQvw9tdH5vL-15" value="step" style="text;html=1;strokeColor=none;fillColor=none;align=center;verticalAlign=middle;whiteSpace=wrap;rounded=0;" parent="47pUHz8qlLQvw9tdH5vL-22" vertex="1">
          <mxGeometry x="17" y="26.67" width="53" height="20" as="geometry" />
        </mxCell>
        <mxCell id="47pUHz8qlLQvw9tdH5vL-16" value="scene" style="text;html=1;strokeColor=none;fillColor=none;align=center;verticalAlign=middle;whiteSpace=wrap;rounded=0;" parent="47pUHz8qlLQvw9tdH5vL-22" vertex="1">
          <mxGeometry x="80" y="26.67" width="47.5" height="20" as="geometry" />
        </mxCell>
        <mxCell id="47pUHz8qlLQvw9tdH5vL-17" value="subStep" style="text;html=1;strokeColor=none;fillColor=none;align=center;verticalAlign=middle;whiteSpace=wrap;rounded=0;" parent="47pUHz8qlLQvw9tdH5vL-22" vertex="1">
          <mxGeometry x="34" y="46.67" width="56" height="20" as="geometry" />
        </mxCell>
        <mxCell id="47pUHz8qlLQvw9tdH5vL-21" value="...." style="text;html=1;align=center;verticalAlign=middle;resizable=0;points=[];autosize=1;strokeColor=none;fillColor=none;" parent="47pUHz8qlLQvw9tdH5vL-22" vertex="1">
          <mxGeometry x="87.5" y="46.67" width="40" height="30" as="geometry" />
        </mxCell>
        <mxCell id="47pUHz8qlLQvw9tdH5vL-28" style="edgeStyle=orthogonalEdgeStyle;rounded=0;orthogonalLoop=1;jettySize=auto;html=1;" parent="1" source="47pUHz8qlLQvw9tdH5vL-24" target="47pUHz8qlLQvw9tdH5vL-8" edge="1">
          <mxGeometry relative="1" as="geometry">
            <Array as="points">
              <mxPoint x="180" y="570" />
              <mxPoint x="620" y="570" />
            </Array>
          </mxGeometry>
        </mxCell>
        <mxCell id="47pUHz8qlLQvw9tdH5vL-24" value="PINView" style="rounded=1;whiteSpace=wrap;html=1;" parent="1" vertex="1">
          <mxGeometry x="120" y="600" width="120" height="60" as="geometry" />
        </mxCell>
        <mxCell id="47pUHz8qlLQvw9tdH5vL-29" style="edgeStyle=orthogonalEdgeStyle;rounded=0;orthogonalLoop=1;jettySize=auto;html=1;entryX=0.5;entryY=1;entryDx=0;entryDy=0;" parent="1" source="47pUHz8qlLQvw9tdH5vL-25" target="47pUHz8qlLQvw9tdH5vL-8" edge="1">
          <mxGeometry relative="1" as="geometry">
            <Array as="points">
              <mxPoint x="340" y="570" />
              <mxPoint x="620" y="570" />
            </Array>
          </mxGeometry>
        </mxCell>
        <mxCell id="47pUHz8qlLQvw9tdH5vL-25" value="PWDView" style="rounded=1;whiteSpace=wrap;html=1;" parent="1" vertex="1">
          <mxGeometry x="280" y="600" width="120" height="60" as="geometry" />
        </mxCell>
        <mxCell id="47pUHz8qlLQvw9tdH5vL-30" style="edgeStyle=orthogonalEdgeStyle;rounded=0;orthogonalLoop=1;jettySize=auto;html=1;" parent="1" source="47pUHz8qlLQvw9tdH5vL-26" target="47pUHz8qlLQvw9tdH5vL-8" edge="1">
          <mxGeometry relative="1" as="geometry">
            <Array as="points">
              <mxPoint x="500" y="570" />
              <mxPoint x="620" y="570" />
            </Array>
          </mxGeometry>
        </mxCell>
        <mxCell id="47pUHz8qlLQvw9tdH5vL-26" value="CreatePWDView" style="rounded=1;whiteSpace=wrap;html=1;" parent="1" vertex="1">
          <mxGeometry x="440" y="600" width="120" height="60" as="geometry" />
        </mxCell>
        <mxCell id="47pUHz8qlLQvw9tdH5vL-31" style="edgeStyle=orthogonalEdgeStyle;rounded=0;orthogonalLoop=1;jettySize=auto;html=1;entryX=0.5;entryY=1;entryDx=0;entryDy=0;" parent="1" source="47pUHz8qlLQvw9tdH5vL-27" target="47pUHz8qlLQvw9tdH5vL-8" edge="1">
          <mxGeometry relative="1" as="geometry">
            <Array as="points">
              <mxPoint x="670" y="570" />
              <mxPoint x="620" y="570" />
            </Array>
          </mxGeometry>
        </mxCell>
        <mxCell id="47pUHz8qlLQvw9tdH5vL-27" value="SMSOTPView" style="rounded=1;whiteSpace=wrap;html=1;" parent="1" vertex="1">
          <mxGeometry x="610" y="600" width="120" height="60" as="geometry" />
        </mxCell>
        <mxCell id="wXyz6Q06AJI_B1UI5oNw-1" value="Transfer Landing Page" style="rounded=1;whiteSpace=wrap;html=1;fontFamily=Helvetica;fontSize=12;fontColor=default;align=center;strokeColor=default;fillColor=default;" parent="1" vertex="1">
          <mxGeometry x="623" y="90" width="120" height="60" as="geometry" />
        </mxCell>
        <mxCell id="wXyz6Q06AJI_B1UI5oNw-2" value="" style="rounded=0;whiteSpace=wrap;html=1;" parent="1" vertex="1">
          <mxGeometry x="110" y="200" width="760" height="90" as="geometry" />
        </mxCell>
        <mxCell id="wXyz6Q06AJI_B1UI5oNw-6" style="edgeStyle=orthogonalEdgeStyle;rounded=0;orthogonalLoop=1;jettySize=auto;html=1;" parent="1" source="wXyz6Q06AJI_B1UI5oNw-3" target="47pUHz8qlLQvw9tdH5vL-5" edge="1">
          <mxGeometry relative="1" as="geometry" />
        </mxCell>
        <mxCell id="wXyz6Q06AJI_B1UI5oNw-7" style="edgeStyle=orthogonalEdgeStyle;rounded=0;orthogonalLoop=1;jettySize=auto;html=1;" parent="1" source="wXyz6Q06AJI_B1UI5oNw-3" target="wXyz6Q06AJI_B1UI5oNw-1" edge="1">
          <mxGeometry relative="1" as="geometry" />
        </mxCell>
        <mxCell id="wXyz6Q06AJI_B1UI5oNw-3" value="usePayeeCheck" style="rounded=1;whiteSpace=wrap;html=1;fontFamily=Helvetica;fontSize=12;fontColor=default;align=center;strokeColor=default;fillColor=default;" parent="1" vertex="1">
          <mxGeometry x="560" y="215" width="120" height="60" as="geometry" />
        </mxCell>
        <mxCell id="47pUHz8qlLQvw9tdH5vL-19" style="edgeStyle=orthogonalEdgeStyle;rounded=0;orthogonalLoop=1;jettySize=auto;html=1;entryX=0.5;entryY=1;entryDx=0;entryDy=0;exitX=0.5;exitY=0;exitDx=0;exitDy=0;" parent="1" source="47pUHz8qlLQvw9tdH5vL-8" edge="1">
          <mxGeometry relative="1" as="geometry">
            <Array as="points">
              <mxPoint x="620" y="320" />
              <mxPoint x="220" y="320" />
            </Array>
            <mxPoint x="474" y="397" as="sourcePoint" />
            <mxPoint x="220" y="147" as="targetPoint" />
          </mxGeometry>
        </mxCell>
        <mxCell id="wXyz6Q06AJI_B1UI5oNw-4" value="hooks" style="text;html=1;align=center;verticalAlign=middle;resizable=0;points=[];autosize=1;strokeColor=none;fillColor=none;" parent="1" vertex="1">
          <mxGeometry x="110" y="200" width="60" height="30" as="geometry" />
        </mxCell>
        <mxCell id="wXyz6Q06AJI_B1UI5oNw-5" style="edgeStyle=orthogonalEdgeStyle;rounded=0;orthogonalLoop=1;jettySize=auto;html=1;entryX=0.5;entryY=1;entryDx=0;entryDy=0;" parent="1" source="47pUHz8qlLQvw9tdH5vL-8" target="wXyz6Q06AJI_B1UI5oNw-3" edge="1">
          <mxGeometry relative="1" as="geometry" />
        </mxCell>
        <mxCell id="XZqSzWeyP3mBKSsPZ4cO-2" style="edgeStyle=orthogonalEdgeStyle;rounded=0;orthogonalLoop=1;jettySize=auto;html=1;entryX=0.5;entryY=1;entryDx=0;entryDy=0;" parent="1" source="XZqSzWeyP3mBKSsPZ4cO-1" target="47pUHz8qlLQvw9tdH5vL-8" edge="1">
          <mxGeometry relative="1" as="geometry">
            <Array as="points">
              <mxPoint x="820" y="570" />
              <mxPoint x="620" y="570" />
            </Array>
          </mxGeometry>
        </mxCell>
        <mxCell id="XZqSzWeyP3mBKSsPZ4cO-1" value="FacialVerifyView" style="rounded=1;whiteSpace=wrap;html=1;" parent="1" vertex="1">
          <mxGeometry x="760" y="600" width="120" height="60" as="geometry" />
        </mxCell>
      </root>
    </mxGraphModel>
  </diagram>
  <diagram id="4Cbg82KS4nXGas6lxXEj" name="第 2 页">
    <mxGraphModel dx="1242" dy="795" grid="1" gridSize="10" guides="1" tooltips="1" connect="1" arrows="1" fold="1" page="1" pageScale="1" pageWidth="827" pageHeight="1169" math="0" shadow="0">
      <root>
        <mxCell id="0" />
        <mxCell id="1" parent="0" />
        <mxCell id="F14RW6M02W7KwmeuQx0O-1" value="" style="rounded=0;whiteSpace=wrap;html=1;fillColor=#dae8fc;strokeColor=#6c8ebf;" vertex="1" parent="1">
          <mxGeometry x="80" y="330" width="820" height="170" as="geometry" />
        </mxCell>
        <mxCell id="F14RW6M02W7KwmeuQx0O-2" value="" style="rounded=0;whiteSpace=wrap;html=1;fillColor=#ffe6cc;strokeColor=#d79b00;" vertex="1" parent="1">
          <mxGeometry x="80" y="90" width="820" height="210" as="geometry" />
        </mxCell>
        <mxCell id="F14RW6M02W7KwmeuQx0O-3" value="" style="rounded=0;whiteSpace=wrap;html=1;" vertex="1" parent="1">
          <mxGeometry x="110" y="120" width="760" height="140" as="geometry" />
        </mxCell>
        <mxCell id="F14RW6M02W7KwmeuQx0O-4" value="Page" style="text;html=1;align=center;verticalAlign=middle;resizable=0;points=[];autosize=1;strokeColor=none;fillColor=none;" vertex="1" parent="1">
          <mxGeometry x="110" y="120" width="50" height="30" as="geometry" />
        </mxCell>
        <mxCell id="F14RW6M02W7KwmeuQx0O-5" value="Login" style="rounded=1;whiteSpace=wrap;html=1;fontFamily=Helvetica;fontSize=12;fontColor=default;align=center;strokeColor=default;fillColor=default;" vertex="1" parent="1">
          <mxGeometry x="280" y="165" width="120" height="60" as="geometry" />
        </mxCell>
        <mxCell id="F14RW6M02W7KwmeuQx0O-6" value="Security Verify" style="rounded=1;whiteSpace=wrap;html=1;fontFamily=Helvetica;fontSize=12;fontColor=default;align=center;strokeColor=default;fillColor=default;" vertex="1" parent="1">
          <mxGeometry x="430" y="165" width="120" height="60" as="geometry" />
        </mxCell>
        <mxCell id="F14RW6M02W7KwmeuQx0O-7" value="" style="rounded=0;whiteSpace=wrap;html=1;" vertex="1" parent="1">
          <mxGeometry x="110" y="380" width="780" height="100" as="geometry" />
        </mxCell>
        <mxCell id="F14RW6M02W7KwmeuQx0O-8" style="edgeStyle=orthogonalEdgeStyle;rounded=0;orthogonalLoop=1;jettySize=auto;html=1;entryX=0.5;entryY=1;entryDx=0;entryDy=0;" edge="1" parent="1" source="F14RW6M02W7KwmeuQx0O-9" target="F14RW6M02W7KwmeuQx0O-29">
          <mxGeometry relative="1" as="geometry">
            <Array as="points">
              <mxPoint x="620" y="310" />
              <mxPoint x="630" y="310" />
            </Array>
          </mxGeometry>
        </mxCell>
        <mxCell id="F14RW6M02W7KwmeuQx0O-35" style="edgeStyle=orthogonalEdgeStyle;rounded=0;orthogonalLoop=1;jettySize=auto;html=1;" edge="1" parent="1" source="F14RW6M02W7KwmeuQx0O-9" target="F14RW6M02W7KwmeuQx0O-34">
          <mxGeometry relative="1" as="geometry">
            <Array as="points">
              <mxPoint x="620" y="310" />
              <mxPoint x="780" y="310" />
            </Array>
          </mxGeometry>
        </mxCell>
        <mxCell id="F14RW6M02W7KwmeuQx0O-9" value="VerifyModel" style="rounded=1;whiteSpace=wrap;html=1;" vertex="1" parent="1">
          <mxGeometry x="560" y="400" width="120" height="60" as="geometry" />
        </mxCell>
        <mxCell id="F14RW6M02W7KwmeuQx0O-10" value="&lt;span style=&quot;&quot;&gt;useVerfiy&lt;/span&gt;" style="text;html=1;align=center;verticalAlign=middle;resizable=0;points=[];autosize=1;strokeColor=none;fillColor=none;" vertex="1" parent="1">
          <mxGeometry x="110" y="375" width="70" height="30" as="geometry" />
        </mxCell>
        <mxCell id="F14RW6M02W7KwmeuQx0O-11" value="Business Layout" style="text;html=1;align=center;verticalAlign=middle;resizable=0;points=[];autosize=1;strokeColor=none;fillColor=none;" vertex="1" parent="1">
          <mxGeometry x="80" y="90" width="110" height="30" as="geometry" />
        </mxCell>
        <mxCell id="F14RW6M02W7KwmeuQx0O-12" value="Logic Layout" style="text;html=1;align=center;verticalAlign=middle;resizable=0;points=[];autosize=1;strokeColor=none;fillColor=none;" vertex="1" parent="1">
          <mxGeometry x="80" y="330" width="90" height="30" as="geometry" />
        </mxCell>
        <mxCell id="F14RW6M02W7KwmeuQx0O-13" value="" style="rounded=0;whiteSpace=wrap;html=1;fillColor=#f5f5f5;fontColor=#333333;strokeColor=#666666;" vertex="1" parent="1">
          <mxGeometry x="80" y="540" width="820" height="160" as="geometry" />
        </mxCell>
        <mxCell id="F14RW6M02W7KwmeuQx0O-14" value="Basic Layout" style="text;html=1;align=center;verticalAlign=middle;resizable=0;points=[];autosize=1;strokeColor=none;fillColor=none;" vertex="1" parent="1">
          <mxGeometry x="80" y="540" width="90" height="30" as="geometry" />
        </mxCell>
        <mxCell id="F14RW6M02W7KwmeuQx0O-15" value="" style="group" vertex="1" connectable="0" parent="1">
          <mxGeometry x="180" y="390" width="170" height="80" as="geometry" />
        </mxCell>
        <mxCell id="F14RW6M02W7KwmeuQx0O-16" value="" style="shape=internalStorage;whiteSpace=wrap;html=1;backgroundOutline=1;" vertex="1" parent="F14RW6M02W7KwmeuQx0O-15">
          <mxGeometry width="170" height="80" as="geometry" />
        </mxCell>
        <mxCell id="F14RW6M02W7KwmeuQx0O-17" value="step" style="text;html=1;strokeColor=none;fillColor=none;align=center;verticalAlign=middle;whiteSpace=wrap;rounded=0;" vertex="1" parent="F14RW6M02W7KwmeuQx0O-15">
          <mxGeometry x="17" y="26.67" width="53" height="20" as="geometry" />
        </mxCell>
        <mxCell id="F14RW6M02W7KwmeuQx0O-18" value="scene" style="text;html=1;strokeColor=none;fillColor=none;align=center;verticalAlign=middle;whiteSpace=wrap;rounded=0;" vertex="1" parent="F14RW6M02W7KwmeuQx0O-15">
          <mxGeometry x="80" y="26.67" width="47.5" height="20" as="geometry" />
        </mxCell>
        <mxCell id="F14RW6M02W7KwmeuQx0O-19" value="subStep" style="text;html=1;strokeColor=none;fillColor=none;align=center;verticalAlign=middle;whiteSpace=wrap;rounded=0;" vertex="1" parent="F14RW6M02W7KwmeuQx0O-15">
          <mxGeometry x="34" y="46.67" width="56" height="20" as="geometry" />
        </mxCell>
        <mxCell id="F14RW6M02W7KwmeuQx0O-20" value="...." style="text;html=1;align=center;verticalAlign=middle;resizable=0;points=[];autosize=1;strokeColor=none;fillColor=none;" vertex="1" parent="F14RW6M02W7KwmeuQx0O-15">
          <mxGeometry x="87.5" y="46.67" width="40" height="30" as="geometry" />
        </mxCell>
        <mxCell id="F14RW6M02W7KwmeuQx0O-21" style="edgeStyle=orthogonalEdgeStyle;rounded=0;orthogonalLoop=1;jettySize=auto;html=1;" edge="1" parent="1" source="F14RW6M02W7KwmeuQx0O-22" target="F14RW6M02W7KwmeuQx0O-9">
          <mxGeometry relative="1" as="geometry">
            <Array as="points">
              <mxPoint x="180" y="570" />
              <mxPoint x="620" y="570" />
            </Array>
          </mxGeometry>
        </mxCell>
        <mxCell id="F14RW6M02W7KwmeuQx0O-22" value="PINView" style="rounded=1;whiteSpace=wrap;html=1;" vertex="1" parent="1">
          <mxGeometry x="120" y="600" width="120" height="60" as="geometry" />
        </mxCell>
        <mxCell id="F14RW6M02W7KwmeuQx0O-23" style="edgeStyle=orthogonalEdgeStyle;rounded=0;orthogonalLoop=1;jettySize=auto;html=1;entryX=0.5;entryY=1;entryDx=0;entryDy=0;" edge="1" parent="1" source="F14RW6M02W7KwmeuQx0O-24" target="F14RW6M02W7KwmeuQx0O-9">
          <mxGeometry relative="1" as="geometry">
            <Array as="points">
              <mxPoint x="340" y="570" />
              <mxPoint x="620" y="570" />
            </Array>
          </mxGeometry>
        </mxCell>
        <mxCell id="F14RW6M02W7KwmeuQx0O-24" value="PWDView" style="rounded=1;whiteSpace=wrap;html=1;" vertex="1" parent="1">
          <mxGeometry x="280" y="600" width="120" height="60" as="geometry" />
        </mxCell>
        <mxCell id="F14RW6M02W7KwmeuQx0O-25" style="edgeStyle=orthogonalEdgeStyle;rounded=0;orthogonalLoop=1;jettySize=auto;html=1;" edge="1" parent="1" source="F14RW6M02W7KwmeuQx0O-26" target="F14RW6M02W7KwmeuQx0O-9">
          <mxGeometry relative="1" as="geometry">
            <Array as="points">
              <mxPoint x="500" y="570" />
              <mxPoint x="620" y="570" />
            </Array>
          </mxGeometry>
        </mxCell>
        <mxCell id="F14RW6M02W7KwmeuQx0O-26" value="CreatePWDView" style="rounded=1;whiteSpace=wrap;html=1;" vertex="1" parent="1">
          <mxGeometry x="440" y="600" width="120" height="60" as="geometry" />
        </mxCell>
        <mxCell id="F14RW6M02W7KwmeuQx0O-27" style="edgeStyle=orthogonalEdgeStyle;rounded=0;orthogonalLoop=1;jettySize=auto;html=1;entryX=0.5;entryY=1;entryDx=0;entryDy=0;" edge="1" parent="1" source="F14RW6M02W7KwmeuQx0O-28" target="F14RW6M02W7KwmeuQx0O-9">
          <mxGeometry relative="1" as="geometry">
            <Array as="points">
              <mxPoint x="670" y="570" />
              <mxPoint x="620" y="570" />
            </Array>
          </mxGeometry>
        </mxCell>
        <mxCell id="F14RW6M02W7KwmeuQx0O-28" value="SMSOTPView" style="rounded=1;whiteSpace=wrap;html=1;" vertex="1" parent="1">
          <mxGeometry x="610" y="600" width="120" height="60" as="geometry" />
        </mxCell>
        <mxCell id="F14RW6M02W7KwmeuQx0O-29" value="pre-login-forgot" style="rounded=1;whiteSpace=wrap;html=1;fontFamily=Helvetica;fontSize=12;fontColor=default;align=center;strokeColor=default;fillColor=default;" vertex="1" parent="1">
          <mxGeometry x="570" y="165" width="120" height="60" as="geometry" />
        </mxCell>
        <mxCell id="F14RW6M02W7KwmeuQx0O-30" style="edgeStyle=orthogonalEdgeStyle;rounded=0;orthogonalLoop=1;jettySize=auto;html=1;exitX=0.5;exitY=0;exitDx=0;exitDy=0;" edge="1" parent="1" source="F14RW6M02W7KwmeuQx0O-9">
          <mxGeometry relative="1" as="geometry">
            <Array as="points">
              <mxPoint x="620" y="310" />
              <mxPoint x="340" y="310" />
              <mxPoint x="340" y="220" />
            </Array>
            <mxPoint x="474" y="397" as="sourcePoint" />
            <mxPoint x="340" y="220" as="targetPoint" />
          </mxGeometry>
        </mxCell>
        <mxCell id="F14RW6M02W7KwmeuQx0O-31" style="edgeStyle=orthogonalEdgeStyle;rounded=0;orthogonalLoop=1;jettySize=auto;html=1;entryX=0.5;entryY=1;entryDx=0;entryDy=0;" edge="1" parent="1" source="F14RW6M02W7KwmeuQx0O-9" target="F14RW6M02W7KwmeuQx0O-6">
          <mxGeometry relative="1" as="geometry">
            <mxPoint x="620" y="275" as="targetPoint" />
            <Array as="points">
              <mxPoint x="620" y="310" />
              <mxPoint x="490" y="310" />
            </Array>
          </mxGeometry>
        </mxCell>
        <mxCell id="F14RW6M02W7KwmeuQx0O-32" style="edgeStyle=orthogonalEdgeStyle;rounded=0;orthogonalLoop=1;jettySize=auto;html=1;entryX=0.5;entryY=1;entryDx=0;entryDy=0;" edge="1" parent="1" source="F14RW6M02W7KwmeuQx0O-33" target="F14RW6M02W7KwmeuQx0O-9">
          <mxGeometry relative="1" as="geometry">
            <Array as="points">
              <mxPoint x="820" y="570" />
              <mxPoint x="620" y="570" />
            </Array>
          </mxGeometry>
        </mxCell>
        <mxCell id="F14RW6M02W7KwmeuQx0O-33" value="FacialVerifyView" style="rounded=1;whiteSpace=wrap;html=1;" vertex="1" parent="1">
          <mxGeometry x="760" y="600" width="120" height="60" as="geometry" />
        </mxCell>
        <mxCell id="F14RW6M02W7KwmeuQx0O-34" value="Transfer Landing" style="rounded=1;whiteSpace=wrap;html=1;fontFamily=Helvetica;fontSize=12;fontColor=default;align=center;strokeColor=default;fillColor=default;" vertex="1" parent="1">
          <mxGeometry x="720" y="165" width="120" height="60" as="geometry" />
        </mxCell>
      </root>
    </mxGraphModel>
  </diagram>
</mxfile>
